<svg xmlns="http://www.w3.org/2000/svg" width="25" height="25" viewBox="0 0 25 25" fill="none">
	<path
		d="M17.925 0C22.1625 0 25 2.975 25 7.4V17.6138C25 22.025 22.1625 25 17.925 25H7.0875C2.85 25 0 22.025 0 17.6138V7.4C0 2.975 2.85 0 7.0875 0H17.925ZM17.725 8.75C17.3 8.325 16.6 8.325 16.175 8.75L11.0125 13.9125L8.825 11.725C8.4 11.3 7.7 11.3 7.275 11.725C6.85 12.15 6.85 12.8375 7.275 13.275L10.25 16.2375C10.4625 16.45 10.7375 16.55 11.0125 16.55C11.3 16.55 11.575 16.45 11.7875 16.2375L17.725 10.3C18.15 9.875 18.15 9.1875 17.725 8.75Z"
		fill="#E15335" />
</svg>